<?xml version="1.0" standalone="no"?>
<!DOCTYPE svg PUBLIC "-//W3C//DTD SVG 20010904//EN"
 "http://www.w3.org/TR/2001/REC-SVG-20010904/DTD/svg10.dtd">
<svg version="1.0" xmlns="http://www.w3.org/2000/svg"
 width="1000.000000pt" height="1000.000000pt" viewBox="0 0 1000.000000 1000.000000"
 preserveAspectRatio="xMidYMid meet">

<g transform="translate(0.000000,1000.000000) scale(0.100000,-0.100000)"
fill="#000000" stroke="none">
<path d="M4883 9455 c-11 -8 -52 -47 -89 -86 -38 -40 -224 -230 -414 -423
-190 -193 -387 -395 -439 -448 l-93 -97 33 -21 34 -20 495 500 495 501 160
-157 c167 -164 455 -444 563 -548 l62 -61 35 19 c19 11 35 24 35 30 0 6 -38
47 -84 91 -47 44 -150 143 -228 220 -338 331 -529 515 -536 515 -4 0 -17 -7
-29 -15z"/>
<path d="M5145 7509 c-49 -10 -122 -30 -161 -44 -59 -22 -75 -24 -100 -15 -16
6 -76 23 -134 37 -94 23 -125 26 -300 27 -152 0 -213 -3 -277 -17 -388 -85
-717 -316 -891 -628 -38 -67 -94 -211 -116 -296 -23 -87 -46 -272 -46 -362 0
-95 22 -231 55 -341 104 -350 410 -673 760 -803 158 -59 235 -72 440 -71 194
0 311 16 440 60 44 14 47 14 162 -24 65 -22 152 -45 194 -52 99 -16 357 -8
459 15 181 40 415 136 595 245 l85 51 0 277 c0 321 1 323 93 410 31 29 58 56
59 59 3 8 -592 4 -605 -4 -4 -2 26 -37 67 -77 80 -78 80 -79 96 -221 20 -186
7 -352 -35 -435 -22 -42 -93 -108 -157 -146 -216 -126 -562 -138 -740 -26
l-32 20 49 29 c71 41 193 133 245 184 336 326 457 869 300 1339 -82 246 -288
498 -523 639 -20 13 -35 27 -32 32 3 5 43 20 88 34 110 34 281 44 386 21 140
-30 305 -132 434 -270 74 -78 192 -213 250 -284 93 -115 93 -115 21 163 -65
250 -63 245 -87 254 -12 5 -56 21 -97 37 -41 15 -129 53 -195 85 -133 63 -190
82 -315 104 -117 21 -321 18 -435 -6z m-635 -95 c63 -6 207 -47 223 -63 4 -4
-23 -31 -61 -59 -240 -178 -411 -493 -473 -872 -30 -179 -23 -440 15 -585 32
-120 115 -296 182 -385 69 -92 190 -207 272 -260 39 -25 70 -49 68 -54 -4 -15
-100 -44 -188 -57 -227 -33 -460 34 -639 185 -206 173 -337 422 -385 731 -49
312 -12 652 95 881 151 321 392 507 706 543 39 5 81 7 95 5 14 -1 54 -6 90
-10z m457 -205 c94 -82 175 -185 236 -300 119 -225 179 -547 156 -836 -27
-338 -121 -558 -322 -750 -48 -46 -90 -83 -95 -83 -15 0 -127 120 -193 205
-96 125 -149 256 -184 457 -65 377 -22 784 110 1048 57 112 203 300 234 300 5
0 31 -19 58 -41z"/>
<path d="M7282 7073 l-33 -28 118 -115 c404 -394 563 -551 563 -557 0 -4 -285
-292 -632 -640 -348 -348 -635 -638 -636 -643 -5 -13 38 -49 58 -50 18 0 1333
1312 1338 1335 4 17 -704 716 -731 723 -7 1 -27 -10 -45 -25z"/>
<path d="M2122 6717 c-171 -171 -312 -317 -312 -323 0 -6 26 -35 58 -64 31
-29 246 -240 478 -469 231 -229 439 -433 462 -455 l40 -39 36 23 c20 12 36 25
36 28 0 4 -218 222 -485 485 -267 263 -485 484 -485 490 0 7 126 138 280 292
154 154 280 284 280 290 0 8 -62 55 -72 55 -2 0 -144 -141 -316 -313z"/>
<path d="M1875 5788 c-36 -74 -45 -102 -45 -146 0 -62 21 -112 59 -145 44 -37
45 -44 11 -97 -37 -58 -35 -74 20 -124 38 -34 102 -60 183 -73 l38 -6 -6 -48
c-8 -60 11 -98 68 -130 52 -29 99 -27 212 9 50 16 94 27 98 25 5 -3 -1 -15
-12 -27 -38 -40 -21 -107 31 -129 18 -8 55 -17 81 -21 120 -18 177 -56 177
-118 0 -41 -14 -78 -30 -78 -4 0 -14 16 -20 35 -23 69 -107 81 -168 24 -19
-17 -22 -27 -16 -52 17 -80 52 -112 117 -108 95 5 156 54 183 148 20 68 9 137
-34 223 -41 83 -110 144 -328 290 -415 278 -459 323 -525 533 -19 59 -37 107
-42 107 -4 0 -28 -41 -52 -92z"/>
<path d="M7917 5797 c-69 -233 -123 -294 -468 -520 -321 -212 -362 -248 -416
-363 -23 -48 -28 -73 -28 -134 0 -91 21 -140 78 -181 34 -25 50 -29 102 -29
66 0 97 17 116 67 19 49 11 80 -25 102 -49 31 -109 28 -135 -5 -12 -15 -21
-35 -21 -45 0 -28 -25 -23 -38 6 -16 36 -15 62 5 96 19 32 60 51 148 68 107
22 126 30 141 67 19 44 18 48 -12 83 -23 27 -24 31 -7 31 10 0 56 -13 103 -30
103 -35 142 -37 200 -7 58 28 87 82 71 128 -6 17 -8 35 -6 39 3 5 31 14 63 20
107 22 170 58 199 114 14 27 13 31 -16 78 -17 27 -31 53 -31 58 0 5 15 20 34
35 80 61 87 168 20 300 -22 43 -45 80 -50 82 -5 2 -17 -25 -27 -60z"/>
<path d="M6998 4589 c-8 -13 -34 -58 -58 -99 -96 -165 -174 -213 -633 -386
-210 -79 -278 -115 -343 -180 -113 -111 -142 -265 -68 -354 56 -66 162 -90
206 -46 66 67 62 117 -15 155 -40 20 -52 22 -75 12 -16 -7 -36 -25 -46 -41
-22 -39 -34 -38 -41 3 -8 39 5 75 35 102 19 17 42 21 149 26 69 4 127 7 128 8
1 0 11 11 23 23 24 26 26 65 4 96 -24 34 1 28 86 -22 111 -64 140 -73 198 -57
67 18 100 52 104 110 l3 46 100 6 c101 5 131 15 173 52 26 24 28 54 7 104 -20
47 -15 57 34 82 48 25 77 61 92 115 10 33 8 58 -6 131 -10 50 -23 101 -30 114
l-12 24 -15 -24z"/>
<path d="M2825 4568 c-2 -7 -9 -31 -16 -53 -7 -22 -13 -81 -14 -132 0 -115 12
-134 121 -199 18 -10 18 -13 0 -72 -19 -61 -19 -62 0 -83 40 -44 91 -61 190
-61 95 -1 111 -8 98 -42 -3 -7 2 -30 10 -50 25 -61 125 -94 193 -64 15 7 64
34 107 60 44 27 83 48 88 48 4 0 -1 -16 -11 -35 -19 -37 -19 -58 2 -86 24 -32
56 -39 170 -39 l115 0 26 -31 c25 -29 31 -50 26 -94 -3 -36 -17 -37 -38 -1
-33 57 -91 60 -151 10 -17 -14 -31 -35 -31 -45 0 -52 62 -119 109 -119 38 1
110 36 138 68 33 38 46 85 41 151 -8 109 -94 226 -213 288 -33 17 -159 68
-280 113 -283 106 -426 174 -490 232 -29 27 -75 88 -110 147 -59 99 -72 113
-80 89z"/>
<path d="M5420 3893 c-236 -218 -367 -340 -426 -395 -33 -32 -66 -58 -73 -58
-8 0 -75 60 -149 133 -319 309 -433 417 -444 417 -10 0 -78 -41 -78 -47 0 -3
35 -40 78 -81 42 -41 151 -147 242 -235 91 -89 206 -202 257 -251 l92 -89 103
99 c113 108 174 165 411 384 86 80 157 149 157 154 0 13 -40 76 -48 76 -4 0
-59 -48 -122 -107z"/>
<path d="M4455 3241 c-163 -37 -233 -46 -350 -46 -101 0 -130 4 -183 23 -75
28 -97 24 -87 -16 18 -75 149 -138 244 -117 49 11 36 22 -33 28 -65 6 -156 41
-156 59 0 6 8 7 18 3 34 -14 148 -35 187 -35 36 0 172 21 340 53 33 6 112 11
175 12 128 0 161 -10 219 -67 50 -49 71 -99 71 -166 0 -108 -40 -179 -124
-218 -68 -32 -125 -31 -185 2 -55 30 -81 67 -81 119 0 80 52 135 127 135 57 0
85 -23 81 -68 -4 -49 -29 -53 -68 -10 -29 31 -32 32 -57 18 -14 -8 -35 -27
-47 -43 -20 -27 -20 -28 -1 -64 28 -51 88 -77 167 -71 62 5 96 23 132 71 25
33 27 138 3 183 -34 65 -116 114 -191 114 -47 0 -135 -28 -182 -57 -22 -14
-56 -48 -75 -74 -19 -26 -37 -48 -40 -49 -4 0 -9 18 -13 40 -7 45 -13 47 -94
29 -27 -7 -62 -9 -77 -5 l-28 7 22 23 c25 26 27 46 6 46 -20 0 -77 -80 -73
-104 7 -44 40 -44 161 0 49 18 47 19 47 -18 0 -38 35 -101 53 -96 7 2 27 32
45 66 40 74 107 125 190 143 103 22 173 -5 212 -82 25 -49 25 -80 0 -129 -45
-87 -185 -109 -219 -33 -27 58 -7 87 26 38 20 -30 29 -35 61 -35 59 1 92 38
92 105 0 68 -68 105 -166 90 -34 -5 -56 -16 -90 -49 -43 -41 -44 -44 -44 -105
0 -132 59 -187 217 -200 71 -5 78 -8 74 -26 -2 -11 -5 -46 -8 -78 -5 -55 -3
-59 31 -93 34 -34 40 -36 74 -29 44 10 105 10 148 0 42 -9 87 15 104 55 8 19
11 56 8 100 l-5 70 48 0 c26 0 72 5 101 11 109 24 176 143 134 242 -46 112
-201 149 -271 65 -69 -81 20 -192 114 -144 17 9 31 24 32 34 0 14 2 14 8 -3
19 -47 -25 -95 -86 -95 -45 0 -110 38 -127 74 -24 50 -21 116 7 157 32 47 69
62 153 62 115 -1 187 -48 243 -160 11 -23 25 -45 31 -48 17 -11 39 14 51 59 6
22 13 46 14 53 3 8 27 4 82 -13 59 -19 83 -22 101 -14 26 11 29 46 7 76 -8 10
-15 22 -15 25 0 3 38 9 85 12 111 8 182 43 204 100 22 58 7 65 -76 37 -103
-34 -230 -38 -373 -10 -189 36 -240 42 -345 38 -118 -5 -168 -25 -238 -94 -25
-24 -50 -44 -57 -44 -6 0 -37 23 -68 50 -32 29 -80 59 -112 71 -78 29 -203 34
-305 10z m990 -51 c121 -30 327 -46 422 -33 43 6 86 14 96 18 9 4 17 3 17 -3
0 -17 -69 -43 -147 -57 -41 -7 -80 -18 -85 -23 -7 -7 -18 -7 -34 0 -35 16 -41
2 -15 -32 12 -17 20 -34 17 -39 -3 -5 -34 -3 -68 5 -103 22 -116 20 -124 -21
-8 -46 -21 -53 -35 -18 -24 65 -99 114 -210 139 -70 15 -80 15 -131 0 -88 -25
-140 -91 -141 -177 -2 -98 59 -168 153 -177 68 -6 133 19 160 62 27 45 25 63
-11 97 -39 37 -60 37 -87 -1 -26 -35 -47 -38 -62 -11 -28 53 2 91 71 91 58 0
99 -30 123 -91 53 -133 -109 -236 -259 -165 -27 13 -58 32 -67 42 -30 35 -51
97 -51 159 -1 125 41 194 145 234 72 27 213 28 323 1z"/>
<path d="M875 2267 c-206 -54 -320 -245 -302 -507 11 -144 53 -239 146 -323
74 -66 143 -90 261 -91 123 0 187 24 270 101 102 94 146 225 137 403 -13 257
-156 414 -387 426 -43 2 -97 -2 -125 -9z m201 -51 c57 -26 112 -86 145 -155
63 -134 60 -381 -6 -511 -95 -186 -290 -225 -416 -81 -65 73 -95 161 -105 301
-11 170 37 323 127 404 78 70 165 84 255 42z"/>
<path d="M5240 2270 c-141 -30 -249 -137 -298 -294 -19 -64 -21 -241 -3 -316
51 -208 230 -337 437 -315 165 17 272 125 282 282 4 68 6 72 30 75 14 2 27 9
30 16 3 9 -30 12 -142 12 -123 0 -146 -2 -146 -15 0 -12 13 -15 55 -15 l55 0
0 -68 c0 -95 -22 -163 -65 -201 -40 -35 -81 -45 -169 -39 -104 6 -180 72 -226
195 -41 111 -43 317 -4 436 50 153 178 237 317 207 103 -22 162 -74 186 -167
21 -76 31 -48 31 82 0 117 -10 157 -24 100 -8 -32 -28 -32 -102 1 -66 29 -170
39 -244 24z"/>
<path d="M6802 2265 c-73 -21 -108 -40 -165 -93 -104 -98 -152 -267 -128 -452
35 -260 235 -415 481 -370 127 23 227 99 281 213 39 85 52 163 46 287 -5 116
-27 192 -79 268 -34 50 -115 112 -177 136 -62 24 -193 30 -259 11z m183 -36
c58 -16 146 -108 174 -184 30 -79 41 -143 41 -229 0 -154 -36 -268 -110 -349
-122 -134 -299 -110 -397 54 -46 78 -63 154 -63 289 0 179 39 292 127 370 64
56 140 73 228 49z"/>
<path d="M3294 2230 c3 -19 6 -75 6 -123 0 -78 2 -88 17 -85 14 3 20 21 28 88
6 47 14 91 18 98 6 8 40 12 113 12 l104 0 0 -415 0 -414 -72 -3 c-46 -2 -73
-7 -76 -15 -3 -10 42 -13 202 -13 176 0 206 2 206 15 0 12 -14 15 -70 15 l-70
0 0 415 0 415 104 0 c58 0 107 -4 110 -8 3 -5 10 -50 17 -100 8 -67 15 -92 26
-92 19 0 21 11 25 135 l3 110 -348 0 -349 0 6 -35z"/>
<path d="M1530 2250 c0 -5 13 -10 29 -10 65 0 61 29 61 -430 l0 -419 -42 -3
c-23 -2 -43 -9 -46 -15 -3 -10 24 -13 113 -13 89 0 116 3 113 13 -3 6 -22 14
-44 17 l-39 5 -3 380 c-1 216 2 375 6 370 10 -11 419 -619 487 -722 29 -45 46
-62 63 -62 l22 -1 2 398 c2 517 -2 486 50 480 19 -2 33 2 35 10 4 9 -22 12
-106 12 -67 0 -111 -4 -111 -10 0 -5 15 -10 33 -10 18 0 38 -5 45 -12 9 -9 12
-95 12 -327 0 -272 -2 -313 -14 -301 -12 13 -188 270 -383 563 l-65 97 -109 0
c-66 0 -109 -4 -109 -10z"/>
<path d="M2800 2249 c0 -7 -31 -95 -69 -198 -38 -102 -108 -293 -156 -423
l-88 -237 -35 -3 c-20 -2 -37 -9 -40 -15 -3 -10 23 -13 107 -13 92 0 111 3
111 15 0 11 -12 15 -46 15 -36 0 -45 3 -41 15 4 8 25 68 49 135 l43 120 161 0
c160 0 162 0 167 -22 2 -13 23 -74 45 -135 l41 -113 -45 0 c-32 0 -44 -4 -44
-15 0 -13 23 -15 145 -15 120 0 145 3 145 14 0 10 -13 16 -37 18 l-38 3 -73
200 c-40 110 -111 305 -159 433 -85 228 -86 232 -114 232 -16 0 -29 -5 -29
-11z m65 -352 c36 -97 65 -181 65 -187 0 -6 -51 -10 -135 -10 -91 0 -135 4
-135 11 0 6 27 84 59 172 75 204 73 199 77 194 2 -2 33 -83 69 -180z"/>
<path d="M4090 2251 c0 -6 17 -11 38 -13 l37 -3 3 -422 2 -423 -40 0 c-29 0
-40 -4 -40 -15 0 -13 23 -15 145 -15 120 0 145 3 145 14 0 10 -14 16 -42 18
l-43 3 -3 414 c-2 325 0 416 10 423 7 4 28 8 46 8 17 0 32 5 32 10 0 6 -55 10
-145 10 -84 0 -145 -4 -145 -9z"/>
<path d="M5810 2250 c0 -5 13 -10 29 -10 65 0 61 29 61 -430 l0 -419 -42 -3
c-23 -2 -43 -8 -45 -15 -3 -9 70 -12 294 -15 164 -2 298 -3 298 -3 0 0 -1 55
-3 123 -3 109 -5 122 -21 122 -14 0 -19 -15 -30 -92 -6 -51 -17 -96 -24 -100
-7 -4 -78 -8 -160 -8 l-147 0 2 418 3 417 43 3 c23 2 42 7 42 13 0 5 -63 9
-150 9 -93 0 -150 -4 -150 -10z"/>
<path d="M7460 2250 c0 -5 13 -10 29 -10 65 0 61 29 61 -430 l0 -419 -42 -3
c-23 -2 -43 -9 -46 -15 -6 -20 408 -18 475 2 67 20 126 64 158 119 22 37 27
58 26 109 -1 109 -36 168 -130 215 l-60 30 39 27 c72 50 109 163 79 242 -17
46 -79 102 -136 123 -47 18 -78 20 -253 20 -127 0 -200 -4 -200 -10z m417 -56
c91 -66 85 -256 -10 -314 -25 -16 -50 -20 -114 -20 l-83 0 0 181 0 181 89 -4
c71 -2 95 -7 118 -24z m16 -388 c148 -61 156 -316 11 -386 -32 -16 -61 -20
-137 -20 l-97 0 0 210 0 210 95 0 c58 0 108 -5 128 -14z"/>
<path d="M8565 2248 c-3 -7 -48 -130 -101 -273 -52 -143 -120 -325 -149 -405
-29 -80 -56 -153 -60 -162 -4 -11 -20 -18 -43 -20 -19 -2 -37 -9 -40 -15 -3
-10 23 -13 107 -13 90 0 111 3 111 14 0 10 -14 16 -44 18 l-45 3 48 130 47
130 160 3 159 2 43 -120 c24 -67 45 -127 49 -135 4 -12 -5 -15 -41 -15 -34 0
-46 -4 -46 -15 0 -13 23 -15 145 -15 122 0 145 2 145 15 0 11 -11 15 -35 15
-20 0 -38 6 -40 13 -6 17 -269 730 -295 800 -18 48 -25 57 -46 57 -14 0 -27
-6 -29 -12z m64 -351 c34 -93 61 -175 61 -183 0 -11 -25 -14 -135 -14 -74 0
-135 3 -135 7 0 22 135 372 141 366 4 -5 35 -84 68 -176z"/>
<path d="M9090 2250 c0 -5 13 -10 29 -10 65 0 61 29 61 -430 l0 -419 -42 -3
c-23 -2 -43 -8 -45 -15 -3 -9 70 -12 294 -15 164 -2 298 -3 298 -3 0 0 -1 55
-3 123 -3 109 -5 122 -21 122 -14 0 -19 -15 -30 -92 -6 -51 -17 -96 -24 -100
-7 -4 -78 -8 -160 -8 l-147 0 2 418 3 417 43 3 c23 2 42 7 42 13 0 5 -63 9
-150 9 -93 0 -150 -4 -150 -10z"/>
<path d="M1174 1030 c-31 -12 -64 -59 -64 -90 0 -40 36 -79 96 -106 64 -28 89
-60 75 -97 -11 -29 -39 -47 -71 -47 -35 0 -79 29 -86 56 -8 32 -17 24 -19 -18
-3 -37 4 -56 14 -39 6 8 18 7 46 -5 50 -20 99 -11 137 26 56 56 27 123 -71
166 -64 28 -81 46 -81 85 0 73 107 77 143 6 l16 -32 0 50 c0 29 -3 45 -7 37
-7 -10 -16 -9 -45 3 -41 17 -53 18 -83 5z"/>
<path d="M3364 1029 c-139 -41 -155 -271 -24 -336 24 -13 56 -23 70 -23 49 0
113 42 138 90 73 146 -40 313 -184 269z m101 -31 c37 -29 55 -76 55 -145 0
-131 -89 -205 -167 -139 -53 44 -69 155 -34 232 33 73 93 94 146 52z"/>
<path d="M4733 1025 c-37 -16 -53 -42 -53 -87 0 -48 21 -72 94 -106 49 -23 67
-37 72 -56 8 -35 -2 -61 -32 -74 -52 -24 -93 -10 -124 41 l-20 32 0 -50 c0
-34 3 -46 10 -39 8 8 24 7 55 -4 64 -21 123 -1 148 50 16 33 17 40 3 72 -12
28 -28 42 -86 71 -72 36 -94 63 -84 103 17 61 144 43 144 -20 0 -11 5 -16 10
-13 6 3 10 25 10 48 0 30 -3 38 -11 30 -8 -8 -20 -7 -45 3 -41 17 -50 17 -91
-1z"/>
<path d="M5607 1026 c-50 -18 -67 -34 -88 -81 -70 -153 53 -315 197 -260 67
25 98 77 98 163 0 45 -6 79 -18 104 -33 67 -117 100 -189 74z m102 -22 c33
-24 61 -91 61 -149 0 -91 -51 -165 -113 -165 -43 0 -67 17 -88 63 -36 81 -15
225 38 256 27 16 75 13 102 -5z"/>
<path d="M7103 1029 c-95 -28 -142 -162 -92 -265 36 -74 112 -107 189 -80 34
12 46 12 52 3 4 -7 8 10 8 36 0 30 -4 46 -10 42 -5 -3 -10 -12 -10 -19 0 -22
-37 -47 -77 -53 -73 -10 -123 58 -123 167 0 56 35 129 72 149 40 22 96 5 125
-38 l23 -34 0 49 c0 34 -3 45 -11 37 -7 -7 -21 -6 -47 3 -43 15 -55 16 -99 3z"/>
<path d="M8174 1029 c-139 -40 -155 -270 -24 -337 114 -59 229 24 230 163 0
74 -33 134 -90 163 -47 24 -67 25 -116 11z m101 -31 c37 -29 55 -76 55 -143 0
-67 -18 -114 -55 -143 -77 -61 -165 14 -165 140 1 129 88 207 165 146z"/>
<path d="M8814 1029 c-139 -40 -155 -270 -24 -337 114 -59 229 24 230 163 0
74 -33 134 -90 163 -47 24 -67 25 -116 11z m101 -31 c37 -29 55 -76 55 -143 0
-67 -18 -114 -55 -143 -77 -61 -165 14 -165 140 1 129 88 207 165 146z"/>
<path d="M9200 1033 c-37 -7 -90 -51 -106 -89 -17 -40 -18 -131 -3 -171 37
-98 165 -132 239 -63 22 21 30 37 30 63 0 20 6 38 13 40 6 3 -13 5 -43 5 -30
0 -44 -3 -31 -5 21 -4 23 -8 17 -46 -8 -50 -36 -77 -80 -77 -67 0 -108 63
-108 166 1 105 41 164 113 164 40 0 89 -36 89 -66 0 -34 15 -2 17 37 1 35 -10
54 -19 29 -2 -6 -19 -4 -43 5 -42 15 -45 15 -85 8z"/>
<path d="M578 1023 c22 -4 22 -6 22 -168 0 -162 0 -164 -22 -168 -13 -2 6 -4
42 -4 36 0 55 2 43 4 -23 4 -23 6 -23 168 0 162 0 164 23 168 12 2 -7 4 -43 4
-36 0 -55 -2 -42 -4z"/>
<path d="M746 1020 c20 -8 21 -16 23 -157 1 -149 -1 -165 -29 -176 -8 -3 8 -5
35 -5 28 0 42 2 33 5 -15 4 -17 23 -20 144 -2 76 0 139 3 139 4 0 50 -65 103
-145 54 -80 102 -145 107 -145 5 0 9 74 9 169 0 153 2 170 18 174 9 3 -3 5
-28 5 -25 0 -37 -2 -27 -5 15 -4 17 -19 17 -124 0 -65 -2 -119 -4 -119 -2 0
-41 56 -87 125 l-84 125 -45 -1 c-35 0 -40 -2 -24 -9z"/>
<path d="M1379 984 c3 -47 21 -44 21 4 0 19 5 22 45 22 l46 0 -3 -157 -3 -158
-30 -6 c-17 -4 7 -6 55 -6 47 0 70 2 53 4 l-33 4 0 160 0 159 45 0 c43 0 45
-1 45 -29 0 -17 5 -33 10 -36 6 -4 10 12 10 39 l0 46 -133 0 -132 0 4 -46z"/>
<path d="M1698 1023 c22 -4 22 -6 22 -168 0 -162 0 -164 -22 -168 -13 -2 6 -4
42 -4 36 0 55 2 43 4 -23 4 -23 6 -23 168 0 162 0 164 23 168 12 2 -7 4 -43 4
-36 0 -55 -2 -42 -4z"/>
<path d="M1840 983 c0 -35 3 -44 10 -33 5 8 10 25 10 38 0 19 5 22 45 22 l45
0 0 -159 0 -160 -32 -4 c-18 -2 5 -4 52 -4 48 0 72 2 55 6 l-30 6 -3 158 -3
157 44 0 c42 0 44 -1 53 -37 l10 -38 5 48 4 47 -132 0 -133 0 0 -47z"/>
<path d="M2153 1023 c9 -2 17 -12 17 -21 5 -273 9 -292 76 -318 53 -20 103
-13 141 21 28 23 28 24 31 169 3 125 6 145 20 149 9 3 -3 5 -28 5 -25 0 -37
-2 -27 -5 15 -4 17 -19 17 -137 0 -117 -2 -136 -20 -158 -37 -48 -131 -42
-151 9 -5 13 -9 82 -9 153 0 125 1 129 23 133 12 2 -7 4 -43 4 -36 1 -57 -1
-47 -4z"/>
<path d="M2489 984 c3 -47 21 -44 21 4 0 19 5 22 45 22 l45 0 0 -147 c0 -82
-4 -153 -8 -159 -4 -7 -18 -14 -32 -17 -14 -2 13 -4 60 -4 47 0 70 2 53 4
l-33 4 0 160 0 159 45 0 c43 0 45 -1 45 -29 0 -17 5 -33 10 -36 6 -4 10 12 10
39 l0 46 -133 0 -132 0 4 -46z"/>
<path d="M2808 1020 c21 -9 22 -13 22 -165 0 -152 -1 -156 -22 -165 -16 -6 17
-9 102 -9 l125 -1 -4 48 -5 47 -10 -37 -10 -38 -68 0 -69 0 3 73 3 72 57 3
c52 3 57 1 61 -20 2 -13 4 0 4 27 0 28 -2 40 -4 27 -4 -21 -9 -23 -61 -20
l-57 3 -3 73 -3 72 66 0 c65 0 66 0 72 -30 8 -43 21 -37 21 10 l1 40 -122 -1
c-83 0 -115 -3 -99 -9z"/>
<path d="M3638 1023 c22 -4 22 -6 22 -168 0 -162 0 -164 -22 -168 -13 -2 11
-4 52 -4 46 -1 63 2 45 6 l-30 6 0 75 0 75 57 3 c55 3 57 2 61 -25 2 -15 4 -3
4 27 0 30 -2 45 -4 32 -4 -21 -9 -23 -61 -20 l-57 3 -3 73 -3 72 65 0 64 0 10
-37 10 -38 1 32 c1 17 4 38 7 47 5 14 -9 16 -117 15 -68 -1 -114 -4 -101 -6z"/>
<path d="M4073 1023 c15 -4 17 -21 17 -168 0 -147 -2 -164 -17 -168 -10 -3 14
-5 52 -4 39 0 58 2 43 4 -28 4 -28 5 -28 84 l0 79 51 0 c42 0 52 -3 56 -20 8
-30 23 -13 23 25 0 38 -15 55 -23 25 -4 -17 -14 -20 -56 -20 l-51 0 0 75 0 76
63 -3 c59 -3 62 -4 65 -30 5 -43 22 -33 22 12 l0 40 -117 -1 c-65 -1 -110 -3
-100 -6z"/>
<path d="M4451 1008 c-5 -13 -33 -89 -62 -170 -32 -88 -60 -149 -69 -152 -8
-2 5 -4 30 -4 25 0 37 2 28 5 -22 5 -22 4 -1 64 l18 49 58 0 58 0 19 -46 c24
-56 25 -61 3 -67 -10 -3 9 -5 42 -5 33 0 53 2 45 4 -9 3 -30 44 -50 97 -96
264 -101 273 -119 225z m28 -110 c30 -87 29 -88 -30 -88 -45 0 -50 2 -44 18 4
9 16 43 27 75 11 31 21 57 23 57 2 0 13 -28 24 -62z"/>
<path d="M4973 1023 c15 -4 17 -21 17 -168 0 -147 -2 -164 -17 -168 -10 -3 9
-5 42 -5 46 -1 55 1 37 8 -21 9 -23 15 -20 82 l3 73 80 0 80 0 1 -75 c2 -68 0
-76 -20 -82 -11 -3 8 -6 44 -6 36 1 55 3 43 5 -23 4 -23 6 -23 168 0 162 0
164 23 168 12 2 -7 5 -43 5 -46 1 -59 -2 -43 -8 19 -8 21 -16 20 -82 l-2 -73
-80 0 -80 0 -3 73 c-3 67 -1 73 20 82 18 7 9 9 -37 8 -33 0 -52 -2 -42 -5z"/>
<path d="M5340 1023 c27 -11 30 -26 30 -176 0 -144 -1 -148 -22 -157 -17 -7
-8 -9 37 -8 33 0 52 2 43 5 -16 4 -18 21 -18 168 0 147 2 164 18 168 9 3 -10
5 -43 5 -33 0 -53 -2 -45 -5z"/>
<path d="M5888 1020 c21 -9 22 -13 22 -165 0 -152 -1 -156 -22 -165 -18 -7
-12 -9 27 -8 28 0 42 2 33 5 -10 2 -18 8 -18 11 0 4 -1 67 -3 140 -1 72 1 132
4 132 3 0 50 -65 105 -145 54 -80 102 -145 106 -145 4 0 8 76 8 169 0 168 0
170 23 174 12 2 0 4 -28 4 -27 1 -42 -1 -32 -4 15 -4 17 -19 17 -124 0 -65 -1
-119 -3 -119 -2 0 -41 56 -88 125 l-84 124 -45 0 c-37 0 -41 -2 -22 -9z"/>
<path d="M6380 985 c0 -25 5 -45 10 -45 6 0 10 16 10 35 0 35 0 35 45 35 l45
0 0 -159 0 -160 -32 -4 c-18 -2 5 -4 52 -4 47 0 73 2 58 4 l-28 4 0 160 0 159
39 0 c40 0 51 -11 51 -51 0 -37 16 -11 18 30 l3 41 -136 0 -135 0 0 -45z"/>
<path d="M6703 1023 c15 -4 17 -21 17 -168 0 -147 -2 -164 -17 -168 -10 -3 37
-5 105 -6 l122 -1 0 45 c0 25 -4 45 -10 45 -5 0 -10 -16 -10 -35 l0 -35 -70 0
-70 0 0 75 0 76 57 -3 c51 -3 58 -6 64 -28 5 -17 7 -8 7 30 1 42 -1 50 -8 33
-8 -20 -17 -23 -65 -23 l-55 0 0 75 0 75 65 0 65 0 0 -30 c0 -16 5 -30 10 -30
6 0 10 18 10 40 l0 40 -117 -1 c-65 -1 -110 -3 -100 -6z"/>
<path d="M7333 1023 c15 -4 17 -21 17 -168 0 -147 -2 -164 -17 -168 -10 -3 11
-5 47 -4 36 0 55 2 43 4 -22 4 -23 9 -23 84 l0 79 80 0 80 0 0 -79 c0 -75 -1
-80 -22 -84 -13 -2 6 -4 42 -4 36 -1 57 1 48 4 -16 4 -18 21 -18 168 0 147 2
164 18 168 9 3 -12 5 -48 4 -36 0 -55 -2 -42 -4 21 -4 22 -9 22 -84 l0 -79
-80 0 -80 0 0 79 c0 75 1 80 23 84 12 2 -7 4 -43 4 -36 1 -57 -1 -47 -4z"/>
<path d="M7713 1023 c15 -4 17 -21 17 -168 0 -147 -2 -164 -17 -168 -10 -3 2
-5 27 -5 25 0 37 2 28 5 -16 4 -18 20 -18 149 0 79 2 144 4 144 2 0 48 -67
102 -150 54 -82 105 -150 112 -150 9 0 12 40 12 169 0 153 2 170 18 174 9 3
-5 5 -33 4 -27 0 -40 -2 -27 -4 21 -4 22 -8 22 -124 0 -65 -3 -119 -7 -119 -5
0 -45 57 -91 125 l-82 125 -43 -1 c-23 -1 -34 -3 -24 -6z"/>
<path d="M8448 1023 c22 -4 22 -6 22 -168 0 -162 0 -164 -22 -168 -13 -2 30
-5 95 -6 l117 -1 0 46 c0 27 -4 43 -10 39 -5 -3 -10 -19 -10 -36 l0 -29 -65 0
-65 0 0 155 c0 152 1 156 23 165 16 6 5 9 -43 8 -36 0 -55 -3 -42 -5z"/>
<path d="M9423 1018 c9 -7 36 -57 61 -112 38 -81 46 -109 46 -157 0 -55 -1
-58 -27 -62 -16 -2 8 -4 52 -4 44 0 68 2 53 4 -27 4 -28 6 -28 66 0 50 8 82
42 164 23 58 49 104 57 106 9 3 -2 5 -24 6 -25 0 -35 -2 -27 -8 11 -7 7 -24
-19 -87 -38 -95 -45 -103 -54 -73 -5 13 -21 53 -38 87 -25 53 -28 65 -16 73 9
6 -4 9 -40 9 -46 0 -52 -2 -38 -12z"/>
</g>
</svg>
