<?xml version="1.0" standalone="no"?>
<!DOCTYPE svg PUBLIC "-//W3C//DTD SVG 20010904//EN"
 "http://www.w3.org/TR/2001/REC-SVG-20010904/DTD/svg10.dtd">
<svg version="1.0" xmlns="http://www.w3.org/2000/svg"
 width="1000.000000pt" height="195.000000pt" viewBox="0 0 1000.000000 195.000000"
 preserveAspectRatio="xMidYMid meet">

<g transform="translate(0.000000,195.000000) scale(0.100000,-0.100000)"
fill="#000000" stroke="none">
<path d="M870 1815 c-205 -58 -315 -245 -297 -505 17 -232 138 -377 344 -412
164 -27 325 47 409 188 13 23 34 79 45 125 41 159 14 339 -68 457 -87 127
-276 191 -433 147z m205 -49 c77 -36 130 -102 166 -206 27 -80 32 -271 10
-360 -52 -206 -208 -315 -359 -250 -57 25 -124 91 -149 150 -62 144 -67 349
-11 497 26 70 105 157 161 176 63 23 124 20 182 -7z"/>
<path d="M5240 1820 c-146 -31 -261 -149 -301 -310 -17 -69 -17 -228 0 -300
50 -207 230 -337 437 -315 170 18 284 139 284 301 0 50 2 53 27 56 14 2 28 9
31 16 3 9 -30 12 -142 12 -123 0 -146 -2 -146 -15 0 -12 13 -15 55 -15 l55 0
0 -68 c0 -95 -22 -163 -65 -201 -40 -35 -81 -45 -169 -39 -141 9 -234 131
-255 334 -27 270 65 469 235 504 135 28 267 -47 292 -165 4 -21 13 -40 20 -43
9 -3 12 28 12 122 0 118 -10 159 -24 101 -8 -32 -28 -32 -102 1 -66 29 -170
39 -244 24z"/>
<path d="M6802 1815 c-73 -21 -108 -40 -165 -93 -183 -172 -179 -559 8 -730
151 -138 406 -132 552 14 83 83 123 202 123 363 0 205 -81 350 -234 422 -79
37 -201 48 -284 24z m183 -36 c58 -16 146 -108 174 -184 30 -79 41 -143 41
-229 0 -155 -36 -268 -111 -350 -130 -142 -323 -102 -412 85 -38 80 -46 129
-47 259 0 179 39 292 127 370 64 56 140 73 228 49z"/>
<path d="M3294 1780 c3 -19 6 -75 6 -123 0 -79 2 -88 18 -85 13 3 19 18 24 68
5 36 10 80 13 98 l6 32 109 0 110 0 0 -415 0 -414 -72 -3 c-46 -2 -73 -7 -76
-15 -3 -10 42 -13 202 -13 176 0 206 2 206 15 0 12 -14 15 -70 15 l-70 0 0
415 0 415 104 0 c58 0 107 -4 110 -8 3 -5 10 -50 17 -100 8 -67 15 -92 26 -92
19 0 21 11 25 135 l3 110 -348 0 -349 0 6 -35z"/>
<path d="M1530 1800 c0 -5 13 -10 29 -10 65 0 61 29 61 -430 l0 -419 -42 -3
c-23 -2 -43 -9 -46 -15 -3 -10 24 -13 112 -13 96 0 116 3 116 15 0 11 -11 15
-40 15 -23 0 -43 5 -45 13 -3 6 -4 178 -3 380 l3 369 225 -334 c123 -183 242
-361 265 -395 29 -45 46 -62 63 -62 l22 -1 1 398 c1 511 -1 486 51 480 19 -2
33 2 35 10 4 9 -22 12 -106 12 -67 0 -111 -4 -111 -10 0 -5 15 -10 34 -10 18
0 39 -6 45 -14 8 -9 11 -104 9 -327 l-3 -314 -82 120 c-45 66 -148 218 -229
338 l-148 217 -108 0 c-65 0 -108 -4 -108 -10z"/>
<path d="M2800 1799 c0 -7 -31 -95 -69 -198 -38 -102 -108 -293 -156 -423
l-88 -237 -35 -3 c-20 -2 -37 -9 -40 -15 -3 -10 23 -13 107 -13 92 0 111 3
111 15 0 11 -12 15 -46 15 -36 0 -45 3 -41 15 4 8 25 68 49 135 l43 120 161 0
c160 0 162 0 167 -22 2 -13 23 -74 45 -135 l41 -113 -45 0 c-32 0 -44 -4 -44
-15 0 -13 23 -15 145 -15 120 0 145 3 145 14 0 10 -13 16 -37 18 l-38 3 -67
185 c-37 102 -109 296 -159 433 -91 243 -93 247 -121 247 -15 0 -28 -5 -28
-11z m69 -362 c34 -93 61 -173 61 -178 0 -5 -58 -9 -135 -9 -94 0 -135 3 -135
11 0 10 84 246 122 342 14 36 12 40 87 -166z"/>
<path d="M4090 1801 c0 -6 17 -11 38 -13 l37 -3 3 -422 2 -423 -40 0 c-29 0
-40 -4 -40 -15 0 -13 23 -15 145 -15 120 0 145 3 145 14 0 10 -14 16 -42 18
l-43 3 -3 414 c-2 325 0 416 10 423 7 4 28 8 46 8 17 0 32 5 32 10 0 6 -55 10
-145 10 -84 0 -145 -4 -145 -9z"/>
<path d="M5810 1800 c0 -5 13 -10 29 -10 65 0 61 29 61 -430 l0 -419 -42 -3
c-23 -2 -43 -8 -45 -15 -3 -9 70 -12 294 -15 164 -2 298 -3 298 -3 0 0 -1 55
-3 123 -3 109 -5 122 -21 122 -14 0 -19 -15 -30 -92 -6 -51 -17 -96 -24 -100
-7 -4 -78 -8 -160 -8 l-147 0 2 418 3 417 43 3 c23 2 42 7 42 13 0 5 -63 9
-150 9 -93 0 -150 -4 -150 -10z"/>
<path d="M7460 1800 c0 -5 13 -10 29 -10 65 0 61 29 61 -430 l0 -419 -42 -3
c-23 -2 -43 -9 -46 -15 -6 -20 408 -18 475 2 67 20 126 64 158 119 22 37 27
58 26 109 -1 109 -36 168 -130 215 l-60 30 39 27 c72 50 109 163 79 242 -17
46 -79 102 -136 123 -47 18 -78 20 -253 20 -127 0 -200 -4 -200 -10z m417 -56
c92 -67 86 -256 -10 -314 -25 -16 -50 -20 -114 -20 l-83 0 0 181 0 181 89 -4
c71 -2 95 -7 118 -24z m16 -388 c148 -61 156 -316 11 -386 -32 -16 -61 -20
-137 -20 l-97 0 0 210 0 210 95 0 c58 0 108 -5 128 -14z"/>
<path d="M8565 1798 c-13 -37 -294 -798 -310 -840 -4 -11 -20 -18 -43 -20 -19
-2 -37 -9 -40 -15 -3 -10 23 -13 107 -13 90 0 111 3 111 14 0 10 -14 16 -44
18 l-45 3 48 130 47 130 160 3 159 2 43 -120 c24 -67 45 -127 49 -135 4 -12
-5 -15 -41 -15 -34 0 -46 -4 -46 -15 0 -13 23 -15 145 -15 120 0 145 3 145 14
0 10 -13 16 -36 18 l-36 3 -67 185 c-84 228 -202 545 -231 623 -18 48 -25 57
-46 57 -14 0 -27 -6 -29 -12z m64 -351 c33 -93 61 -175 61 -183 0 -11 -26 -14
-135 -14 -74 0 -135 3 -135 7 0 22 135 372 141 366 4 -5 34 -84 68 -176z"/>
<path d="M9090 1800 c0 -5 13 -10 29 -10 65 0 61 29 61 -430 l0 -419 -42 -3
c-23 -2 -43 -8 -45 -15 -3 -9 70 -12 294 -15 164 -2 298 -3 298 -3 0 0 -1 55
-3 123 -3 109 -5 122 -21 122 -14 0 -19 -15 -30 -92 -6 -51 -17 -96 -24 -100
-7 -4 -78 -8 -160 -8 l-147 0 2 418 3 417 43 3 c23 2 42 7 42 13 0 5 -63 9
-150 9 -93 0 -150 -4 -150 -10z"/>
<path d="M1174 580 c-31 -12 -64 -59 -64 -90 0 -39 36 -79 95 -105 60 -27 78
-45 78 -82 0 -32 -35 -63 -70 -63 -39 0 -82 28 -90 58 -7 26 -7 25 -14 -13 -7
-42 -2 -65 10 -46 6 8 18 7 46 -5 50 -20 99 -11 137 26 56 56 27 123 -71 166
-64 28 -81 46 -81 85 0 73 107 77 143 6 l16 -32 0 50 c0 29 -3 45 -7 37 -7
-10 -16 -9 -45 3 -41 17 -53 18 -83 5z"/>
<path d="M3364 579 c-97 -28 -143 -160 -94 -266 41 -91 168 -119 244 -54 30
26 56 92 56 146 0 122 -99 206 -206 174z m101 -31 c37 -29 55 -76 55 -145 0
-131 -89 -205 -167 -139 -53 44 -69 155 -34 232 33 73 93 94 146 52z"/>
<path d="M4733 575 c-37 -16 -53 -42 -53 -85 0 -49 16 -68 90 -105 52 -26 71
-42 76 -61 10 -41 -10 -72 -51 -80 -47 -8 -80 7 -105 48 l-20 33 0 -50 c0 -36
3 -46 11 -38 8 8 21 7 46 -4 68 -28 145 2 162 63 15 54 -9 90 -83 125 -35 17
-70 37 -77 45 -19 23 -15 72 7 89 38 30 124 -3 124 -47 0 -11 5 -16 10 -13 6
3 10 25 10 48 0 30 -3 38 -11 30 -8 -8 -20 -7 -45 3 -41 17 -50 17 -91 -1z"/>
<path d="M5590 568 c-82 -42 -115 -159 -71 -253 24 -52 46 -71 103 -86 40 -11
52 -10 92 5 69 26 100 77 100 164 1 111 -45 173 -139 187 -31 5 -51 1 -85 -17z
m119 -14 c52 -37 75 -141 49 -226 -21 -71 -93 -108 -150 -77 -54 29 -76 174
-38 257 27 60 90 80 139 46z"/>
<path d="M7103 579 c-96 -28 -142 -162 -92 -267 36 -74 111 -105 189 -78 34
12 46 12 52 3 4 -7 8 10 8 36 0 30 -4 46 -10 42 -5 -3 -10 -12 -10 -19 0 -22
-37 -47 -77 -53 -73 -10 -123 58 -123 167 0 56 35 129 72 149 40 22 96 5 125
-38 l23 -34 0 49 c0 34 -3 45 -11 37 -7 -7 -21 -6 -47 3 -43 15 -55 16 -99 3z"/>
<path d="M8173 579 c-97 -28 -143 -165 -90 -269 59 -117 224 -115 278 4 43 96
11 212 -71 254 -47 24 -67 25 -117 11z m102 -31 c37 -29 55 -76 55 -143 0 -67
-18 -114 -55 -143 -75 -59 -165 14 -165 134 0 67 19 121 53 150 35 30 76 31
112 2z"/>
<path d="M8813 579 c-97 -28 -143 -165 -90 -269 59 -117 224 -115 278 4 43 96
11 212 -71 254 -47 24 -67 25 -117 11z m102 -31 c37 -29 55 -76 55 -143 0 -67
-18 -114 -55 -143 -75 -59 -165 14 -165 134 0 67 19 121 53 150 35 30 76 31
112 2z"/>
<path d="M9200 583 c-37 -7 -90 -51 -106 -89 -17 -40 -18 -131 -3 -171 37 -98
165 -132 239 -63 22 21 30 37 30 63 0 20 6 38 13 40 6 3 -13 5 -43 5 -30 0
-44 -3 -31 -5 21 -4 23 -8 17 -46 -8 -50 -36 -77 -80 -77 -67 0 -108 63 -108
166 1 105 41 164 113 164 40 0 89 -36 89 -66 0 -34 15 -2 17 37 1 35 -10 54
-19 29 -2 -6 -19 -4 -43 5 -42 15 -45 15 -85 8z"/>
<path d="M578 573 c22 -4 22 -6 22 -168 0 -162 0 -164 -22 -168 -13 -2 6 -4
42 -4 36 0 55 2 43 4 -23 4 -23 6 -23 168 0 162 0 164 23 168 12 2 -7 4 -43 4
-36 0 -55 -2 -42 -4z"/>
<path d="M746 570 c19 -8 21 -17 23 -143 2 -148 -3 -184 -27 -190 -10 -3 6 -5
33 -5 28 0 42 2 33 5 -15 4 -17 23 -20 144 -2 76 0 139 3 139 4 0 50 -65 103
-145 54 -80 102 -145 107 -145 5 0 9 74 9 169 0 153 2 170 18 174 9 3 -3 5
-28 5 -25 0 -37 -2 -27 -5 15 -4 17 -19 17 -124 0 -65 -2 -119 -4 -119 -2 0
-41 56 -87 125 l-84 125 -45 -1 c-34 0 -40 -2 -24 -9z"/>
<path d="M1379 534 c3 -47 21 -44 21 4 0 19 5 22 45 22 l46 0 -3 -157 -3 -158
-30 -6 c-17 -4 7 -6 55 -6 47 0 70 2 53 4 l-33 4 0 160 0 159 45 0 c43 0 45
-1 45 -29 0 -17 5 -33 10 -36 6 -4 10 12 10 39 l0 46 -133 0 -132 0 4 -46z"/>
<path d="M1698 573 c22 -4 22 -6 22 -168 0 -162 0 -164 -22 -168 -13 -2 6 -4
42 -4 36 0 55 2 43 4 -23 4 -23 6 -23 168 0 162 0 164 23 168 12 2 -7 4 -43 4
-36 0 -55 -2 -42 -4z"/>
<path d="M1840 533 c0 -35 3 -44 10 -33 5 8 10 25 10 38 0 19 5 22 45 22 l45
0 0 -159 0 -160 -32 -4 c-18 -2 5 -4 52 -4 48 0 72 2 55 6 l-30 6 -3 158 -3
157 44 0 c42 0 44 -1 53 -37 l10 -38 5 48 4 47 -132 0 -133 0 0 -47z"/>
<path d="M2153 573 c9 -2 17 -12 17 -21 0 -123 9 -252 20 -274 17 -36 85 -63
135 -54 19 4 47 18 62 31 28 23 28 24 31 169 3 125 6 145 20 149 9 3 -3 5 -28
5 -25 0 -37 -2 -27 -5 15 -4 17 -19 17 -137 0 -117 -2 -136 -20 -158 -37 -48
-131 -42 -151 9 -5 13 -9 82 -9 153 0 125 1 129 23 133 12 2 -7 4 -43 4 -36 1
-57 -1 -47 -4z"/>
<path d="M2489 534 c3 -47 21 -44 21 4 0 19 5 22 45 22 l45 0 0 -147 c0 -82
-4 -153 -8 -159 -4 -7 -18 -14 -32 -17 -14 -2 13 -4 60 -4 47 0 70 2 53 4
l-33 4 0 160 0 159 45 0 c43 0 45 -1 45 -29 0 -17 5 -33 10 -36 6 -4 10 12 10
39 l0 46 -133 0 -132 0 4 -46z"/>
<path d="M2808 570 c21 -9 22 -13 22 -165 0 -152 -1 -156 -22 -165 -16 -6 17
-9 102 -9 l125 -1 -4 47 -5 48 -10 -37 -10 -38 -68 0 -69 0 3 73 3 72 57 3
c52 3 57 1 61 -20 2 -13 4 0 4 27 0 28 -2 40 -4 27 -4 -21 -9 -23 -61 -20
l-57 3 -3 73 -3 72 66 0 c65 0 66 0 72 -30 8 -43 21 -37 21 10 l1 40 -122 -1
c-83 0 -115 -3 -99 -9z"/>
<path d="M3638 573 c22 -4 22 -6 22 -168 0 -162 0 -164 -22 -168 -13 -2 11 -4
52 -4 46 -1 63 2 45 6 l-30 6 0 75 0 75 57 3 c55 3 57 2 61 -25 2 -15 4 -3 4
27 0 30 -2 45 -4 32 -4 -21 -9 -23 -61 -20 l-57 3 -3 73 -3 72 65 0 64 0 10
-37 10 -38 1 32 c1 17 4 38 7 47 5 14 -9 16 -117 15 -68 -1 -114 -4 -101 -6z"/>
<path d="M4073 573 c15 -4 17 -21 17 -168 0 -147 -2 -164 -17 -168 -10 -3 14
-5 52 -4 39 0 58 2 43 4 -28 4 -28 5 -28 84 l0 79 55 0 c49 0 55 -2 55 -21 0
-11 5 -17 10 -14 12 8 13 72 1 79 -5 3 -11 -3 -14 -14 -4 -17 -14 -20 -56 -20
l-51 0 0 75 0 76 63 -3 c59 -3 62 -4 65 -30 5 -43 22 -33 22 12 l0 40 -117 -1
c-65 -1 -110 -3 -100 -6z"/>
<path d="M4451 558 c-5 -13 -33 -89 -62 -170 -32 -88 -60 -149 -69 -152 -8 -2
5 -4 30 -4 25 0 37 2 28 5 -22 5 -22 4 -1 64 l18 49 58 0 58 0 19 -46 c24 -56
25 -61 3 -67 -10 -3 11 -5 47 -4 36 0 56 2 45 4 -16 3 -29 26 -55 96 -96 264
-101 273 -119 225z m28 -110 c30 -87 29 -88 -30 -88 -45 0 -50 2 -44 18 4 9
16 43 27 75 11 31 21 57 23 57 2 0 13 -28 24 -62z"/>
<path d="M4973 573 c15 -4 17 -21 17 -168 0 -147 -2 -164 -17 -168 -10 -3 9
-5 42 -5 46 -1 55 1 37 8 -21 9 -23 15 -20 82 l3 73 80 0 80 0 1 -75 c2 -68 0
-76 -20 -82 -11 -3 8 -6 44 -6 36 1 55 3 43 5 -23 4 -23 6 -23 168 0 162 0
164 23 168 12 2 -7 5 -43 5 -49 1 -59 -2 -42 -8 21 -9 23 -15 20 -82 l-3 -73
-80 0 -80 0 -3 73 c-3 67 -1 73 20 82 18 7 9 9 -37 8 -33 0 -52 -2 -42 -5z"/>
<path d="M5340 573 c27 -11 30 -26 30 -176 0 -144 -1 -148 -22 -157 -17 -7 -8
-9 37 -8 33 0 52 2 43 5 -16 4 -18 21 -18 168 0 147 2 164 18 168 9 3 -10 5
-43 5 -33 0 -53 -2 -45 -5z"/>
<path d="M5888 570 c21 -9 22 -13 22 -165 0 -152 -1 -156 -22 -165 -18 -7 -12
-9 27 -8 28 0 42 2 33 5 -10 2 -18 8 -18 11 0 4 -1 67 -3 140 -1 72 1 132 4
132 3 0 50 -65 105 -145 54 -80 102 -145 106 -145 4 0 8 76 8 169 0 168 0 170
23 174 12 2 0 4 -28 4 -27 1 -42 -1 -32 -4 15 -4 17 -19 17 -124 0 -65 -1
-119 -3 -119 -2 0 -41 56 -88 125 l-84 124 -45 0 c-37 0 -41 -2 -22 -9z"/>
<path d="M6380 535 c0 -25 5 -45 10 -45 6 0 10 16 10 35 0 35 0 35 45 35 l45
0 0 -159 0 -160 -32 -4 c-18 -2 5 -4 52 -4 47 0 73 2 58 4 l-28 4 0 160 0 159
39 0 c40 0 51 -11 51 -51 0 -37 16 -11 18 30 l3 41 -136 0 -135 0 0 -45z"/>
<path d="M6703 573 c15 -4 17 -21 17 -168 0 -147 -2 -164 -17 -168 -10 -3 37
-5 105 -6 l122 -1 0 45 c0 25 -4 45 -10 45 -5 0 -10 -16 -10 -35 l0 -35 -70 0
-70 0 0 75 0 76 57 -3 c51 -3 58 -6 64 -28 5 -17 7 -8 7 30 1 42 -1 50 -8 33
-8 -20 -17 -23 -65 -23 l-55 0 0 75 0 75 65 0 65 0 0 -30 c0 -16 5 -30 10 -30
6 0 10 18 10 40 l0 40 -117 -1 c-65 -1 -110 -3 -100 -6z"/>
<path d="M7333 573 c15 -4 17 -21 17 -168 0 -147 -2 -164 -17 -168 -10 -3 11
-5 47 -4 36 0 55 2 43 4 -22 4 -23 9 -23 84 l0 79 80 0 80 0 0 -79 c0 -75 -1
-80 -22 -84 -13 -2 6 -4 42 -4 36 -1 57 1 48 4 -16 4 -18 21 -18 168 0 147 2
164 18 168 9 3 -12 5 -48 4 -36 0 -55 -2 -42 -4 21 -4 22 -9 22 -84 l0 -79
-80 0 -80 0 0 79 c0 75 1 80 23 84 12 2 -7 4 -43 4 -36 1 -57 -1 -47 -4z"/>
<path d="M7713 573 c15 -4 17 -21 17 -168 0 -147 -2 -164 -17 -168 -10 -3 2
-5 27 -5 25 0 37 2 28 5 -16 4 -18 20 -18 149 0 79 2 144 4 144 2 0 48 -67
102 -150 54 -82 105 -150 112 -150 9 0 12 40 12 169 0 153 2 170 18 174 9 3
-5 5 -33 4 -27 0 -40 -2 -27 -4 21 -4 22 -8 22 -124 0 -65 -3 -119 -7 -119 -5
0 -45 57 -91 125 l-82 125 -43 -1 c-23 -1 -34 -3 -24 -6z"/>
<path d="M8448 573 c22 -4 22 -6 22 -168 0 -162 0 -164 -22 -168 -13 -2 30 -5
95 -6 l117 -1 0 46 c0 27 -4 43 -10 39 -5 -3 -10 -19 -10 -36 l0 -29 -65 0
-65 0 0 155 c0 152 1 156 23 165 16 6 5 9 -43 8 -36 0 -55 -3 -42 -5z"/>
<path d="M9423 568 c9 -7 36 -57 61 -112 38 -81 46 -109 46 -157 0 -55 -1 -58
-27 -62 -16 -2 6 -4 47 -4 41 0 65 2 53 4 -21 4 -23 10 -23 66 0 50 8 82 42
164 23 58 49 104 57 106 9 3 -2 5 -24 6 -25 0 -35 -2 -27 -8 11 -7 7 -24 -19
-87 -17 -44 -35 -83 -39 -87 -4 -5 -15 10 -23 32 -9 22 -26 61 -38 87 -19 38
-20 47 -8 55 9 6 -5 9 -40 9 -46 0 -52 -2 -38 -12z"/>
</g>
</svg>
