<?xml version="1.0" standalone="no"?>
<!DOCTYPE svg PUBLIC "-//W3C//DTD SVG 20010904//EN"
 "http://www.w3.org/TR/2001/REC-SVG-20010904/DTD/svg10.dtd">
<svg version="1.0" xmlns="http://www.w3.org/2000/svg"
 width="629.000000pt" height="701.000000pt" viewBox="0 0 629.000000 701.000000"
 preserveAspectRatio="xMidYMid meet">

<g transform="translate(0.000000,701.000000) scale(0.100000,-0.100000)"
fill="#000000" stroke="none">
<path d="M3014 6929 c-44 -45 -212 -216 -374 -381 -385 -391 -579 -592 -580
-599 0 -3 15 -13 33 -22 l32 -16 495 500 495 500 160 -157 c167 -164 455 -445
563 -548 l62 -61 35 19 c19 11 35 25 35 31 0 7 -39 49 -87 94 -49 45 -151 144
-228 219 -460 451 -515 502 -538 502 -17 0 -48 -24 -103 -81z"/>
<path d="M3352 5059 c-51 -11 -122 -30 -158 -44 l-65 -25 -107 31 c-249 70
-546 64 -795 -17 -329 -105 -616 -343 -755 -625 -226 -458 -173 -1004 131
-1364 203 -240 415 -375 702 -447 78 -20 116 -23 280 -22 194 0 311 16 440 60
44 14 47 14 162 -24 65 -22 156 -45 204 -52 108 -16 346 -8 449 15 184 41 415
136 596 245 l84 51 0 277 c0 321 1 323 93 410 31 29 58 56 59 59 3 8 -592 4
-605 -4 -4 -2 26 -37 67 -78 80 -79 80 -80 96 -220 21 -193 4 -378 -43 -448
-49 -74 -159 -151 -270 -188 -146 -49 -332 -63 -454 -34 -78 18 -197 71 -189
84 3 5 27 21 54 36 355 204 576 583 598 1025 19 381 -110 712 -377 965 -68 65
-175 147 -221 171 -15 8 -28 17 -28 20 0 7 66 34 130 52 37 10 102 15 195 16
121 1 149 -2 210 -22 90 -30 180 -81 253 -141 93 -79 256 -250 352 -371 61
-77 88 -105 95 -99 5 6 -78 354 -106 445 -10 34 -18 38 -129 79 -41 16 -129
54 -195 86 -66 31 -145 64 -175 73 -172 50 -411 60 -578 25z m-632 -94 c60 -7
217 -52 225 -66 3 -4 -16 -22 -42 -40 -26 -18 -79 -65 -118 -104 -202 -200
-327 -468 -380 -810 -26 -163 -17 -423 19 -560 31 -118 115 -294 182 -385 69
-93 190 -208 272 -260 39 -25 70 -49 68 -54 -4 -15 -100 -44 -188 -57 -293
-43 -575 77 -780 330 -178 221 -263 503 -262 871 0 242 36 431 113 595 149
319 388 504 701 545 36 4 81 6 100 4 19 -2 60 -6 90 -9z m456 -206 c72 -62
120 -117 178 -204 124 -187 195 -413 214 -685 24 -337 -42 -633 -187 -842 -49
-72 -210 -238 -229 -238 -15 0 -144 140 -206 222 -115 153 -174 353 -196 665
-27 373 48 713 209 946 51 73 146 177 162 177 4 0 29 -18 55 -41z"/>
<path d="M5491 4623 l-33 -28 148 -144 c304 -294 534 -521 534 -528 0 -4 -285
-292 -632 -640 -348 -348 -635 -638 -636 -643 -5 -13 38 -49 59 -50 17 0 1332
1312 1337 1334 4 18 -704 717 -731 724 -7 1 -27 -10 -46 -25z"/>
<path d="M332 4267 c-171 -171 -312 -315 -312 -320 0 -6 463 -467 805 -802 66
-64 145 -142 177 -172 l56 -56 36 22 c20 13 36 26 36 29 0 4 -218 222 -485
485 -267 263 -485 484 -485 490 0 7 126 138 280 292 154 154 280 284 280 290
0 8 -62 55 -72 55 -2 0 -144 -141 -316 -313z"/>
<path d="M85 3338 c-67 -139 -61 -223 20 -297 38 -34 37 -41 -3 -103 -29 -45
-24 -65 28 -112 38 -34 102 -60 183 -73 l38 -6 -6 -48 c-8 -60 11 -98 68 -130
52 -29 101 -28 201 5 43 14 87 26 98 26 18 0 17 -2 -3 -30 -19 -25 -21 -35
-13 -67 11 -46 37 -60 143 -80 119 -23 161 -54 161 -121 0 -36 -15 -72 -30
-72 -4 0 -14 16 -20 36 -8 24 -22 40 -45 51 -31 15 -37 15 -80 -2 -66 -25 -76
-68 -36 -144 39 -72 186 -51 245 36 41 60 51 127 32 203 -36 140 -93 200 -363
380 -418 281 -460 324 -529 548 -16 50 -32 92 -37 92 -4 0 -28 -42 -52 -92z"/>
<path d="M6120 3328 c-65 -218 -121 -278 -460 -502 -324 -212 -364 -247 -417
-362 -61 -134 -32 -273 67 -324 54 -28 139 -27 169 1 26 25 41 60 41 99 0 36
-51 70 -104 70 -42 0 -86 -36 -86 -70 0 -36 -29 -22 -41 21 -11 35 -10 45 5
74 21 38 58 56 151 74 107 22 126 30 141 67 19 44 18 48 -12 83 -23 27 -24 31
-7 31 10 0 56 -13 103 -30 103 -35 142 -37 200 -7 58 28 87 82 71 128 -6 17
-8 35 -6 39 3 5 31 14 63 20 107 22 170 58 199 114 14 27 13 31 -16 78 -17 27
-31 53 -31 58 0 5 15 20 34 35 80 61 87 168 20 300 -22 43 -45 80 -50 82 -5 2
-20 -34 -34 -79z"/>
<path d="M5208 2139 c-8 -13 -35 -58 -59 -99 -56 -95 -116 -156 -203 -205 -67
-37 -353 -157 -471 -197 -129 -44 -247 -108 -302 -165 -114 -117 -141 -253
-67 -349 44 -59 154 -93 194 -61 26 20 60 74 60 95 0 52 -92 105 -143 81 -13
-6 -31 -24 -41 -40 -22 -38 -34 -37 -41 4 -8 39 5 75 35 102 19 17 42 21 149
26 69 4 127 7 128 8 1 0 11 11 23 23 24 26 26 65 4 96 -14 20 -14 22 3 22 10
0 35 -11 54 -25 59 -39 155 -85 179 -85 40 0 100 23 125 48 17 17 25 37 27 70
l3 47 100 6 c101 5 131 15 173 52 26 24 28 49 7 108 -18 49 -15 53 54 91 38
21 69 70 76 123 6 41 -28 221 -45 239 -4 4 -15 -2 -22 -15z"/>
<path d="M1035 2118 c-2 -7 -9 -31 -16 -53 -7 -22 -13 -81 -14 -132 0 -115 12
-134 121 -199 18 -10 18 -13 0 -72 -19 -61 -19 -62 0 -83 36 -41 100 -61 193
-61 90 -1 104 -7 95 -44 -9 -36 23 -84 69 -105 70 -31 101 -25 217 41 58 32
107 55 109 49 2 -6 -2 -16 -8 -22 -6 -6 -11 -23 -11 -38 0 -73 33 -89 182 -89
125 -1 139 -6 162 -61 14 -33 12 -84 -4 -94 -5 -3 -17 11 -28 30 -33 55 -92
59 -151 9 -36 -30 -39 -56 -11 -101 42 -70 99 -79 185 -29 63 37 89 96 83 186
-4 55 -12 79 -42 129 -70 115 -129 151 -451 271 -281 105 -426 174 -490 232
-30 28 -74 85 -110 147 -58 99 -72 114 -80 89z"/>
<path d="M3700 1507 c-25 -23 -97 -89 -159 -147 -63 -58 -124 -114 -136 -125
-139 -133 -265 -245 -274 -245 -7 0 -22 10 -35 23 -110 108 -489 471 -519 497
l-38 33 -35 -19 c-20 -11 -38 -23 -41 -27 -3 -5 30 -43 73 -84 44 -41 160
-154 259 -251 99 -97 215 -209 257 -250 l77 -75 93 89 c81 79 220 209 253 239
102 90 325 302 325 309 0 13 -40 76 -48 76 -4 0 -27 -19 -52 -43z"/>
<path d="M2715 798 c-335 -65 -472 -71 -588 -28 -70 26 -92 21 -82 -18 18 -75
149 -138 244 -117 49 11 36 22 -31 28 -64 6 -158 40 -158 57 0 12 -4 13 52 -4
115 -35 168 -32 493 27 33 6 112 11 175 12 128 0 161 -10 219 -67 50 -49 71
-99 71 -166 0 -108 -40 -179 -124 -218 -80 -38 -157 -28 -227 28 -60 48 -47
171 21 212 35 20 99 21 128 0 26 -18 31 -81 8 -90 -20 -8 -53 12 -61 36 -9 27
-37 25 -74 -5 -41 -35 -47 -59 -22 -99 51 -82 208 -89 279 -13 43 45 50 141
17 207 -31 61 -112 110 -181 110 -49 0 -138 -27 -188 -57 -37 -22 -56 -43
-101 -108 -16 -24 -22 -20 -28 23 -3 19 -8 37 -11 40 -4 3 -35 0 -71 -7 -36
-7 -77 -10 -91 -7 l-27 7 22 23 c25 26 27 46 6 46 -18 0 -75 -76 -75 -101 0
-10 10 -23 21 -30 22 -12 50 -6 142 27 49 18 47 19 47 -18 0 -38 35 -101 53
-95 6 2 28 31 47 65 60 107 173 164 286 147 39 -5 57 -15 86 -46 48 -50 57
-96 32 -158 -50 -119 -234 -121 -234 -2 0 33 13 31 37 -4 19 -28 30 -35 58
-35 18 0 41 3 50 6 37 15 58 102 34 146 -14 26 -68 48 -116 48 -53 -1 -115
-31 -147 -72 -46 -61 -30 -187 30 -239 32 -27 81 -41 161 -48 71 -5 78 -8 74
-26 -2 -11 -5 -46 -8 -78 -5 -55 -3 -59 31 -93 32 -32 40 -35 69 -29 41 9 113
9 153 0 42 -9 87 15 104 55 8 19 11 55 8 99 l-5 68 83 6 c46 3 96 13 112 21
58 30 102 105 102 174 0 64 -66 143 -134 161 -119 30 -222 -77 -156 -162 40
-51 142 -40 153 15 2 13 5 6 5 -17 2 -45 -4 -57 -35 -74 -54 -28 -150 6 -177
63 -24 50 -21 116 7 157 32 47 69 62 153 62 115 -1 187 -48 243 -160 11 -23
25 -45 31 -48 17 -11 39 14 51 59 6 22 13 46 14 53 3 8 27 4 82 -13 59 -19 83
-22 101 -14 26 11 29 46 7 76 -8 10 -15 22 -15 25 0 3 38 9 84 12 100 7 177
40 201 87 34 66 14 80 -76 50 -99 -34 -229 -37 -369 -10 -189 36 -240 42 -345
38 -118 -5 -174 -27 -239 -95 -22 -23 -47 -43 -55 -43 -7 0 -36 21 -65 47 -62
56 -114 80 -209 96 -62 11 -84 10 -162 -5z m990 -68 c80 -18 131 -23 260 -24
108 0 169 4 189 12 34 15 50 6 21 -11 -35 -21 -89 -37 -142 -43 -29 -4 -61
-12 -70 -19 -12 -9 -23 -10 -40 -2 -34 15 -40 1 -15 -33 25 -33 29 -55 9 -47
-7 3 -48 11 -91 18 -85 13 -96 9 -96 -38 0 -28 -18 -39 -27 -16 -25 71 -101
124 -214 149 -70 15 -80 15 -131 0 -88 -25 -138 -88 -140 -176 -3 -100 57
-169 152 -178 67 -6 128 18 158 61 30 44 28 63 -9 98 -39 37 -60 37 -87 -1
-26 -35 -47 -38 -62 -11 -27 52 5 91 76 91 53 0 95 -33 118 -91 53 -133 -109
-236 -259 -165 -27 13 -58 32 -67 42 -30 35 -51 97 -51 159 -1 125 41 193 145
234 71 28 231 24 373 -9z"/>
</g>
</svg>
